<svg xmlns="http://www.w3.org/2000/svg" width="680" height="465"><g transform="translate(60 15)"><text x="0" y="445">v1.0</text><text x="19.7507" y="445" /><text x="68.2718" y="445" /><text x="74.5894" y="445" /><text x="249.9657" y="445" /><text x="262.6526" y="445" /><text x="295.1001" y="445" /><text x="300.2681" y="445" /><text x="307.8238" y="445" /><text x="312.6946" y="445" /><text x="318.9722" y="445" /><text x="325.2245" y="445" /><text x="331.6935" y="445" /><text x="343.9281" y="445" /><text x="350.3371" y="445" /><text x="357.1488" y="445" /><text x="362.81" y="445" /><text x="370.2537" y="445" /><text x="375.2817" y="445" /><text x="387.7569" y="445" /><text x="519.5553" y="445" /><text x="620" y="445" /><path class="annotation" d="M 0 415 L 19.7507 415 L 68.2718 415 L 74.5894 415 L 249.966 415 L 262.653 415 L 295.1 415 L 300.268 415 L 307.824 415 L 312.695 415 L 318.972 415 L 325.224 415 L 331.694 415 L 343.928 415 L 350.337 415 L 357.149 415 L 362.81 415 L 370.254 415 L 375.282 415 L 387.757 415 L 519.555 415 L 620 415" /><g class="x axis" transform="translate(0 380)"><g class="tick" style="opacity: 1;" transform="translate(22.1896)"><line x2="0" y2="6" /><text style="text-anchor: middle;" x="0" y="9" dy="0.71em">10/01/2016</text></g><g class="tick" style="opacity: 1;" transform="translate(216.269)"><line x2="0" y2="6" /><text style="text-anchor: middle;" x="0" y="9" dy="0.71em">11/01/2016</text></g><g class="tick" style="opacity: 1;" transform="translate(404.088)"><line x2="0" y2="6" /><text style="text-anchor: middle;" x="0" y="9" dy="0.71em">12/01/2016</text></g><g class="tick" style="opacity: 1;" transform="translate(598.167)"><line x2="0" y2="6" /><text style="text-anchor: middle;" x="0" y="9" dy="0.71em">01/01/2017</text></g><path class="domain" d="M 0 2 V 0 H 620 V 2" /></g><g class="y axis"><g class="tick" style="opacity: 1;" transform="translate(0 340.458)"><line x2="-6" y2="0" /><text style="text-anchor: end;" x="-9" y="0" dy="0.32em">84,000</text></g><g class="tick" style="opacity: 1;" transform="translate(0 288.015)"><line x2="-6" y2="0" /><text style="text-anchor: end;" x="-9" y="0" dy="0.32em">84,500</text></g><g class="tick" style="opacity: 1;" transform="translate(0 235.573)"><line x2="-6" y2="0" /><text style="text-anchor: end;" x="-9" y="0" dy="0.32em">85,000</text></g><g class="tick" style="opacity: 1;" transform="translate(0 183.13)"><line x2="-6" y2="0" /><text style="text-anchor: end;" x="-9" y="0" dy="0.32em">85,500</text></g><g class="tick" style="opacity: 1;" transform="translate(0 130.687)"><line x2="-6" y2="0" /><text style="text-anchor: end;" x="-9" y="0" dy="0.32em">86,000</text></g><g class="tick" style="opacity: 1;" transform="translate(0 78.2445)"><line x2="-6" y2="0" /><text style="text-anchor: end;" x="-9" y="0" dy="0.32em">86,500</text></g><g class="tick" style="opacity: 1;" transform="translate(0 25.8018)"><line x2="-6" y2="0" /><text style="text-anchor: end;" x="-9" y="0" dy="0.32em">87,000</text></g><path class="domain" d="M -2 0 H 0 V 380 H -2" /></g><g class="grid" transform="translate(0 380)"><g class="tick" style="opacity: 1;" transform="translate(22.1896)"><line x2="0" y2="-380" /><text style="text-anchor: middle;" x="0" y="3" dy="0.71em" /></g><g class="tick" style="opacity: 1;" transform="translate(216.269)"><line x2="0" y2="-380" /><text style="text-anchor: middle;" x="0" y="3" dy="0.71em" /></g><g class="tick" style="opacity: 1;" transform="translate(404.088)"><line x2="0" y2="-380" /><text style="text-anchor: middle;" x="0" y="3" dy="0.71em" /></g><g class="tick" style="opacity: 1;" transform="translate(598.167)"><line x2="0" y2="-380" /><text style="text-anchor: middle;" x="0" y="3" dy="0.71em" /></g><path class="domain" d="M 0 0 V 0 H 620 V 0" /></g><g class="grid"><g class="tick" style="opacity: 1;" transform="translate(0 340.458)"><line x2="620" y2="0" /><text style="text-anchor: end;" x="-3" y="0" dy="0.32em" /></g><g class="tick" style="opacity: 1;" transform="translate(0 288.015)"><line x2="620" y2="0" /><text style="text-anchor: end;" x="-3" y="0" dy="0.32em" /></g><g class="tick" style="opacity: 1;" transform="translate(0 235.573)"><line x2="620" y2="0" /><text style="text-anchor: end;" x="-3" y="0" dy="0.32em" /></g><g class="tick" style="opacity: 1;" transform="translate(0 183.13)"><line x2="620" y2="0" /><text style="text-anchor: end;" x="-3" y="0" dy="0.32em" /></g><g class="tick" style="opacity: 1;" transform="translate(0 130.687)"><line x2="620" y2="0" /><text style="text-anchor: end;" x="-3" y="0" dy="0.32em" /></g><g class="tick" style="opacity: 1;" transform="translate(0 78.2445)"><line x2="620" y2="0" /><text style="text-anchor: end;" x="-3" y="0" dy="0.32em" /></g><g class="tick" style="opacity: 1;" transform="translate(0 25.8018)"><line x2="620" y2="0" /><text style="text-anchor: end;" x="-3" y="0" dy="0.32em" /></g><path class="domain" d="M 0 0 H 0 V 380 H 0" /></g><path class="line" d="M 0 153.028 L 19.7507 158.272 L 68.2718 172.432 L 74.5894 172.432 L 249.966 115.164 L 262.653 108.661 L 295.1 98.6972 L 300.268 98.4874 L 307.824 88.1038 L 312.695 15.9426 L 318.972 6.08336 L 325.224 2.41237 L 331.694 0.419542 L 343.928 0 L 350.337 205.575 L 357.149 195.506 L 362.81 195.506 L 370.254 195.716 L 375.282 195.716 L 387.757 380 L 519.555 340.983 L 620 329.55" data-group="x0" data-type="line" /><circle class="point" cx="0" cy="153.028" r="3" data-group="x0" data-value="85787" data-date="Tue Sep 27 2016 10:56:11 GMT+0800 (中国标准时间)" data-version="v1.0" /><circle class="point" cx="19.7507" cy="158.272" r="3" data-group="x0" data-value="85737" data-date="Fri Sep 30 2016 14:39:01 GMT+0800 (中国标准时间)" data-version="v1.0" /><circle class="point" cx="68.2718" cy="172.432" r="3" data-group="x0" data-value="85602" data-date="Sat Oct 08 2016 08:39:18 GMT+0800 (中国标准时间)" data-version="v1.0" /><circle class="point" cx="74.5894" cy="172.432" r="3" data-group="x0" data-value="85602" data-date="Sun Oct 09 2016 08:52:25 GMT+0800 (中国标准时间)" data-version="v1.0" /><circle class="point" cx="249.966" cy="115.164" r="3" data-group="x0" data-value="86148" data-date="Sun Nov 06 2016 09:10:32 GMT+0800 (中国标准时间)" data-version="v1.0" /><circle class="point" cx="262.653" cy="108.661" r="3" data-group="x0" data-value="86210" data-date="Tue Nov 08 2016 09:48:38 GMT+0800 (中国标准时间)" data-version="v1.0" /><circle class="point active" cx="295.1" cy="98.6972" r="5" data-group="x0" data-value="86305" data-date="Sun Nov 13 2016 14:11:51 GMT+0800 (中国标准时间)" data-version="v1.0" /><circle class="point" cx="300.268" cy="98.4874" r="3" data-group="x0" data-value="86307" data-date="Mon Nov 14 2016 10:00:32 GMT+0800 (中国标准时间)" data-version="v1.0" /><circle class="point" cx="307.824" cy="88.1038" r="3" data-group="x0" data-value="86406" data-date="Tue Nov 15 2016 14:58:25 GMT+0800 (中国标准时间)" data-version="v1.0" /><circle class="point" cx="312.695" cy="15.9426" r="3" data-group="x0" data-value="87094" data-date="Wed Nov 16 2016 09:38:45 GMT+0800 (中国标准时间)" data-version="v1.0" /><circle class="point" cx="318.972" cy="6.08336" r="3" data-group="x0" data-value="87188" data-date="Thu Nov 17 2016 09:42:39 GMT+0800 (中国标准时间)" data-version="v1.0" /><circle class="point" cx="325.224" cy="2.41237" r="3" data-group="x0" data-value="87223" data-date="Fri Nov 18 2016 09:40:44 GMT+0800 (中国标准时间)" data-version="v1.0" /><circle class="point" cx="331.694" cy="0.419542" r="3" data-group="x0" data-value="87242" data-date="Sat Nov 19 2016 10:28:40 GMT+0800 (中国标准时间)" data-version="v1.0" /><circle class="point" cx="343.928" cy="0" r="3" data-group="x0" data-value="87246" data-date="Mon Nov 21 2016 09:22:44 GMT+0800 (中国标准时间)" data-version="v1.0" /><circle class="point" cx="350.337" cy="205.575" r="3" data-group="x0" data-value="85286" data-date="Tue Nov 22 2016 09:56:52 GMT+0800 (中国标准时间)" data-version="v1.0" /><circle class="point" cx="357.149" cy="195.506" r="3" data-group="x0" data-value="85382" data-date="Wed Nov 23 2016 12:03:37 GMT+0800 (中国标准时间)" data-version="v1.0" /><circle class="point" cx="362.81" cy="195.506" r="3" data-group="x0" data-value="85382" data-date="Thu Nov 24 2016 09:45:45 GMT+0800 (中国标准时间)" data-version="v1.0" /><circle class="point" cx="370.254" cy="195.716" r="3" data-group="x0" data-value="85380" data-date="Fri Nov 25 2016 14:17:52 GMT+0800 (中国标准时间)" data-version="v1.0" /><circle class="point" cx="375.282" cy="195.716" r="3" data-group="x0" data-value="85380" data-date="Sat Nov 26 2016 09:34:20 GMT+0800 (中国标准时间)" data-version="v1.0" /><circle class="point" cx="387.757" cy="380" r="3" data-group="x0" data-value="83623" data-date="Mon Nov 28 2016 09:23:45 GMT+0800 (中国标准时间)" data-version="v1.0" /><circle class="point" cx="519.555" cy="340.983" r="3" data-group="x0" data-value="83995" data-date="Mon Dec 19 2016 10:38:34 GMT+0800 (中国标准时间)" data-version="v1.0" /><circle class="point" cx="620" cy="329.55" r="3" data-group="x0" data-value="84104" data-date="Wed Jan 04 2017 11:41:45 GMT+0800 (中国标准时间)" data-version="v1.0" /></g></svg>